<?xml version="1.0" encoding="UTF-8"?>
<svg id="Layer_2" data-name="Layer 2" xmlns="http://www.w3.org/2000/svg" viewBox="0 0 101.63 142.38">
  <defs>
    <style>
      .cls-1 {
        fill: #f47640;
        stroke: #0c0c0d;
        stroke-miterlimit: 10;
      }
    </style>
  </defs>
  <g id="Layer_1-2" data-name="Layer 1">
    <path id="OrangeCoffee" class="cls-1" d="M97.52,35.24l-9.27,94.52c-26.97,16.92-44.51,14.87-71.88,1.63l-.48-.51L6.37,39.91c33.41,15.45,56.57,18.83,90.81-3.61M2.87,14.15v14.81l-.63,.65c22.2,17.57,69.11,21.56,96.15,.41l.29,.28V14.15h0c-26.33,22.88-71.38,21-95.98-.32M50.16,.5C23.7,.5,2.25,7.14,2.25,15.33s21.45,14.83,47.9,14.83,48.02-8.15,48.02-16.34S76.61,.5,50.16,.5ZM2.91,35.72c-.23,.04,.66,.18,.44,.4,22.2,17.57,68.48,21.83,95.52,.68v-.06c-.13-2.37,.03-4.41-.1-6.78-6.16,4.32-23.71,15.4-48.75,15.55-24.28,.14-41.38-10.17-47.7-14.35,.4,1.5,.18,3.07,.58,4.57Zm-1.57,3.91c-.24,.05,.26,.17,.46,.41,19.1,22.73,73.13,22.49,99.31-.41v-.06c-.11-2.47,.09-4.6-.02-7.08-6.46,4.58-23.41,15.25-50.87,16.8C25,50.7,7.33,39.16,.8,34.87c.39,1.56,.15,3.2,.55,4.76ZM10.42,17.78c1.96,1.66,3.72,2.8,3.94,2.54s-1.19-1.81-3.15-3.47-3.72-2.8-3.94-2.54,1.19,1.81,3.15,3.47Zm7.93,6.52c13.77,5.32,51.22,6.65,68.84-1.45m-3.36-16.01C69.87,2.04,31.12,.59,13.82,9.34c-.92,.47-1.82,.96-2.69,1.47m83.27,8.11c3.21-2.95,3.67-7.87-3.04-10.72m2.11,10.79c3.21-2.95,3.67-7.87-3.04-10.72M17.85,22.47c13.77,5.32,51.22,6.65,68.84-1.45m-3.77-15.89C68.96,.32,30.21-1.12,12.91,7.62c-.92,.47-1.82,.96-2.69,1.47M1.66,39.32c11.93,12.72,40.45,20.56,59.26,15.45M36.21,9.05c-15.23-1.56-35.31,10.75-1.64,13.1m28.4-.4c33.67-2.35,13.59-14.66-1.64-13.1M11.48,77.4l1.18,12.36,.17,1.98c18.61,14.7,55.62,17.35,78.67-.84l.24-.76,1.17-13.25h0c-22.47,19.65-60.96,18.1-81.57,.24"/>
  </g>
</svg>