<?xml version="1.0" encoding="UTF-8"?>
<svg id="Layer_1" data-name="Layer 1" xmlns="http://www.w3.org/2000/svg" viewBox="0 0 243.1 190.32">
  <defs>
    <style>
      .cls-1 {
        stroke-width: .38px;
      }

      .cls-1, .cls-2, .cls-3, .cls-4, .cls-5, .cls-6, .cls-7, .cls-8, .cls-9, .cls-10, .cls-11, .cls-12, .cls-13, .cls-14 {
        stroke-miterlimit: 10;
      }

      .cls-1, .cls-2, .cls-6, .cls-8, .cls-9, .cls-10, .cls-11, .cls-12 {
        stroke: #2d2b29;
      }

      .cls-1, .cls-3, .cls-4, .cls-5, .cls-6, .cls-12, .cls-13, .cls-14 {
        fill: none;
      }

      .cls-2 {
        fill: #af784f;
        stroke-width: 1.12px;
      }

      .cls-3 {
        stroke: #fff;
        stroke-width: .4px;
      }

      .cls-15 {
        fill: #2d2b29;
      }

      .cls-4, .cls-5, .cls-6 {
        stroke-width: .75px;
      }

      .cls-4, .cls-13 {
        stroke: #f9f9fa;
      }

      .cls-5 {
        stroke: #141315;
      }

      .cls-7 {
        fill: #eda144;
        stroke: #0c0c0d;
      }

      .cls-8 {
        fill: #77491d;
      }

      .cls-9 {
        fill: #633d22;
      }

      .cls-9, .cls-11 {
        stroke-width: 1.32px;
      }

      .cls-10 {
        fill: #a36941;
        stroke-width: 1.37px;
      }

      .cls-11 {
        fill: #805130;
      }

      .cls-13 {
        stroke-width: .25px;
      }

      .cls-14 {
        stroke: #f9f8f7;
        stroke-width: .5px;
      }
    </style>
  </defs>
  <g id="YellowCoffee">
    <g id="Coffee2">
      <path class="cls-7" d="M171.28,62.18l-9.27,94.52c-26.97,16.92-44.51,14.87-71.88,1.63l-.48-.51-9.51-90.97c33.41,15.45,56.57,18.83,90.81-3.61"/>
    </g>
    <g id="Lid">
      <path class="cls-9" d="M76.39,44.13c24.6,21.32,69.64,23.2,95.98,.32h0v16.16l-.29-.28c-27.04,21.15-73.95,17.15-96.15-.41l.63-.65v-14.81"/>
      <path class="cls-8" d="M171.87,44.12c0,8.19-21.57,16.34-48.02,16.34s-47.9-6.64-47.9-14.83,21.45-14.83,47.9-14.83,48.02,5.13,48.02,13.33Z"/>
      <path class="cls-11" d="M76.03,61.45c6.33,4.19,23.42,14.49,47.7,14.35,25.04-.14,42.58-11.23,48.75-15.55,.13,2.37-.04,4.41,.09,6.78v.06c-27.03,21.15-73.31,16.88-95.51-.68,.21-.22-.67-.36-.44-.4-.4-1.5-.18-3.07-.58-4.57Z"/>
      <path class="cls-10" d="M74.49,65.16c6.53,4.3,24.2,15.83,49.43,14.41,27.45-1.54,44.41-12.22,50.87-16.8,.11,2.47-.09,4.6,.01,7.08v.06c-26.17,22.9-80.2,23.14-99.3,.41-.2-.24-.7-.36-.46-.41-.39-1.56-.15-3.2-.55-4.76Z"/>
      <ellipse class="cls-15" cx="84.5" cy="47.6" rx=".61" ry="4.65" transform="translate(-6.45 81.29) rotate(-49.72)"/>
      <path class="cls-6" d="M92.04,54.59c13.77,5.32,51.22,6.65,68.84-1.45"/>
      <path class="cls-12" d="M157.52,37.14c-13.96-4.81-52.7-6.25-70.01,2.49-.92,.47-1.82,.96-2.69,1.47"/>
      <path class="cls-1" d="M168.09,49.22c3.21-2.95,3.67-7.87-3.04-10.72"/>
      <path class="cls-3" d="M167.15,49.29c3.21-2.95,3.67-7.87-3.04-10.72"/>
      <path class="cls-4" d="M91.54,52.76c13.77,5.32,51.22,6.65,68.84-1.45"/>
      <path class="cls-14" d="M156.61,35.42c-13.96-4.81-52.7-6.25-70.01,2.49-.92,.47-1.82,.96-2.69,1.47"/>
      <path class="cls-13" d="M75.35,69.61c11.93,12.72,40.45,20.56,59.26,15.45"/>
      <path class="cls-5" d="M109.9,39.34c-15.23-1.56-35.31,10.75-1.64,13.1"/>
      <path class="cls-5" d="M135.02,38.94c15.23-1.56,35.31,10.75,1.64,13.1"/>
    </g>
    <path class="cls-2" d="M84.19,104.64c20.6,17.86,59.1,19.41,81.57-.24h0l-1.17,13.25-.24,.76c-23.05,18.18-60.06,15.54-78.67,.84l-.17-1.98-1.18-12.36"/>
  </g>
</svg>