<?xml version="1.0" encoding="UTF-8"?>
<svg id="Layer_1" data-name="Layer 1" xmlns="http://www.w3.org/2000/svg" viewBox="0 0 265.61 257.8">
  <defs>
    <style>
      .cls-1 {
        fill: #af784f;
        stroke-width: 1.12px;
      }

      .cls-1, .cls-2, .cls-3 {
        stroke-miterlimit: 10;
      }

      .cls-1, .cls-3 {
        stroke: #2d2b29;
      }

      .cls-2 {
        fill: #e2a4ca;
        stroke: #0c0c0d;
      }

      .cls-3 {
        fill: #633d22;
        stroke-width: 1.32px;
      }
    </style>
  </defs>
  <g id="PinkCoffee">
    <path id="Coffee2" class="cls-2" d="M139.33,131.81l-9.27,94.52c-26.97,16.92-45.74,13.58-73.11,.33l-.29-.28s-8.48-89.91-8.48-89.91c33.41,15.45,56.57,18.83,90.81-3.61"/>
    <path id="Lid" class="cls-3" d="M45.25,111.84c24.6,21.32,69.64,23.2,95.98,.32h0v16.16l-.29-.28c-27.04,21.15-73.95,17.15-96.15-.41l.63-.65v-14.81m47.29-13.65c-26.46,0-47.9,6.64-47.9,14.83s21.45,14.83,47.9,14.83,48.02-8.15,48.02-16.34-21.57-13.33-48.02-13.33Zm-47.24,35.22c-.23,.04,.66,.18,.44,.4,22.2,17.57,68.48,21.83,95.52,.68v-.06c-.13-2.37,.03-4.41-.1-6.78-6.16,4.32-23.71,15.4-48.75,15.55-24.28,.14-41.38-10.17-47.7-14.35,.4,1.5,.18,3.07,.58,4.57Zm-1.57,3.91c-.24,.05,.26,.17,.46,.41,19.1,22.73,73.13,22.49,99.31-.41v-.06c-.11-2.47,.09-4.6-.02-7.08-6.46,4.58-23.41,15.25-50.87,16.8-25.23,1.42-42.9-10.12-49.43-14.41,.39,1.56,.15,3.2,.55,4.76Zm9.07-21.85c1.96,1.66,3.72,2.8,3.94,2.54s-1.19-1.81-3.15-3.47-3.72-2.8-3.94-2.54,1.19,1.81,3.15,3.47Zm7.93,6.52c13.77,5.32,51.22,6.65,68.84-1.45m-3.36-16.01c-13.96-4.81-52.7-6.25-70.01,2.49-.92,.47-1.82,.96-2.69,1.47m83.27,8.11c3.21-2.95,3.67-7.87-3.04-10.72m2.11,10.79c3.21-2.95,3.67-7.87-3.04-10.72m-72.57,14.19c13.77,5.32,51.22,6.65,68.84-1.45m-3.77-15.89c-13.96-4.81-52.7-6.25-70.01,2.49-.92,.47-1.82,.96-2.69,1.47m-8.55,30.22c11.93,12.72,40.45,20.56,59.26,15.45m-14.36-31.82-1.64-13.1-8.72-.8c-15.23-1.56-35.31,10.75-1.64,13.1m28.4-.4c33.67-2.35,13.59-14.66-1.64-13.1"/>
    <path class="cls-1" d="M53.11,170.48c20.6,17.86,59.1,19.41,81.57-.24h0l-1.17,13.25-.24,.76c-23.05,18.18-60.06,15.54-78.67,.84l-.17-1.98-1.18-12.36"/>
  </g>
</svg>